<svg width="20" height="20" viewBox="0 0 20 20" fill="none" xmlns="http://www.w3.org/2000/svg">
<path d="M1.875 17.5H18.125" stroke="#7161BA" stroke-width="2" stroke-linecap="round" stroke-linejoin="round"/>
<path d="M4.375 17.5V3.125C4.375 2.95924 4.44085 2.80027 4.55806 2.68306C4.67527 2.56585 4.83424 2.5 5 2.5H15C15.1658 2.5 15.3247 2.56585 15.4419 2.68306C15.5592 2.80027 15.625 2.95924 15.625 3.125V17.5" stroke="#7161BA" stroke-width="2" stroke-linecap="round" stroke-linejoin="round"/>
<path d="M12.1875 10.9375C12.7053 10.9375 13.125 10.5178 13.125 10C13.125 9.48223 12.7053 9.0625 12.1875 9.0625C11.6697 9.0625 11.25 9.48223 11.25 10C11.25 10.5178 11.6697 10.9375 12.1875 10.9375Z" fill="#7161BA"/>
</svg>
