<svg width="46" height="46" viewBox="0 0 46 46" fill="none" xmlns="http://www.w3.org/2000/svg">
<path fill-rule="evenodd" clip-rule="evenodd" d="M34.5156 1C40.875 1 45 5.125 45 11.4844V34.5156C45 40.875 40.875 45 34.5156 45H11.4844C5.125 45 1 40.875 1 34.5156V11.4844C1 5.125 5.125 1 11.4844 1H34.5156Z" fill="white"/>
<path fill-rule="evenodd" clip-rule="evenodd" d="M34.5156 1C40.875 1 45 5.125 45 11.4844V34.5156C45 40.875 40.875 45 34.5156 45H11.4844C5.125 45 1 40.875 1 34.5156V11.4844C1 5.125 5.125 1 11.4844 1H34.5156Z" fill="white" stroke="#A4A4A4" stroke-width="0.5"/>
<path fill-rule="evenodd" clip-rule="evenodd" d="M18.7937 9.13573C15.2377 10.3547 12.2077 13.0206 10.5199 16.3943C9.93122 17.5582 9.50732 18.7929 9.24827 20.0747C8.60458 23.2519 9.05203 26.6413 10.5121 29.5354C11.4619 31.4227 12.8278 33.1057 14.4763 34.419C16.0384 35.6615 17.8517 36.5895 19.7828 37.1007C22.2163 37.7534 24.8067 37.7377 27.2559 37.1793C29.4696 36.6681 31.5655 35.6065 33.2375 34.0651C35.0037 32.4372 36.2676 30.2982 36.9348 27.994C37.6648 25.4853 37.759 22.8036 37.304 20.2242C32.7273 20.2242 28.143 20.2242 23.5665 20.2242C23.5665 22.1273 23.5665 24.0304 23.5665 25.9336C26.2197 25.9336 28.873 25.9336 31.5263 25.9336C31.2201 27.7581 30.1368 29.4253 28.6061 30.4554C27.6406 31.1082 26.5337 31.525 25.3877 31.7295C24.2416 31.9261 23.0484 31.9496 21.9023 31.7216C20.7327 31.4857 19.6258 30.9981 18.6524 30.3139C17.0982 29.2208 15.9128 27.6244 15.3084 25.8235C14.6882 23.9911 14.6804 21.9543 15.3084 20.1298C15.748 18.8401 16.4702 17.6526 17.4279 16.6774C18.6053 15.4664 20.1361 14.6013 21.7924 14.2474C23.2054 13.9486 24.6968 14.0036 26.0784 14.4204C27.2559 14.7743 28.3392 15.427 29.2262 16.2764C30.1211 15.3799 31.016 14.4833 31.9109 13.5868C32.3819 13.1071 32.8764 12.6431 33.3317 12.1477C31.9737 10.8894 30.3723 9.87492 28.6296 9.23007C25.4897 8.06619 21.9572 8.04258 18.7937 9.13573Z" fill="white"/>
<path fill-rule="evenodd" clip-rule="evenodd" d="M18.7928 9.13566C21.9485 8.04251 25.4888 8.06613 28.6287 9.22215C30.3714 9.86701 31.9649 10.8736 33.3308 12.1398C32.8755 12.6352 32.381 13.0992 31.91 13.5789C31.0151 14.4754 30.1202 15.3719 29.2253 16.2684C28.3383 15.4191 27.255 14.7743 26.0775 14.4125C24.696 13.9957 23.2045 13.9328 21.7915 14.2395C20.143 14.5934 18.6123 15.4584 17.4269 16.6695C16.4693 17.6368 15.747 18.8322 15.3075 20.1219C13.714 18.8793 12.1204 17.6447 10.519 16.4021C12.2068 13.0205 15.2368 10.3546 18.7928 9.13566Z" fill="#EA4335"/>
<path fill-rule="evenodd" clip-rule="evenodd" d="M9.25444 20.0662C9.51349 18.7922 9.9374 17.5496 10.5262 16.3857C12.1196 17.6283 13.7132 18.8629 15.3146 20.1055C14.6866 21.9378 14.6866 23.9746 15.3146 25.7991C13.721 27.0417 12.1275 28.2842 10.534 29.5189C9.0582 26.6327 8.61076 23.2433 9.25444 20.0662Z" fill="#FBBC05"/>
<path fill-rule="evenodd" clip-rule="evenodd" d="M23.565 20.2158C28.1415 20.2158 32.7258 20.2158 37.3024 20.2158C37.7575 22.7874 37.6555 25.4691 36.9333 27.9856C36.2661 30.2898 35.0023 32.4289 33.236 34.0568C31.6896 32.8535 30.1432 31.6503 28.5967 30.4471C30.1275 29.4169 31.2107 27.7497 31.5169 25.9252C28.8636 25.9252 26.2104 25.9252 23.5571 25.9252C23.565 24.0221 23.565 22.1189 23.565 20.2158Z" fill="#4285F4"/>
<path fill-rule="evenodd" clip-rule="evenodd" d="M10.519 29.5274C12.1126 28.2927 13.7061 27.0502 15.2996 25.8076C15.9119 27.6085 17.0894 29.2049 18.6437 30.2981C19.6171 30.9822 20.7317 31.4698 21.8935 31.7057C23.0396 31.9417 24.2249 31.9102 25.3789 31.7136C26.525 31.5091 27.6318 31.0923 28.5973 30.4396C30.1438 31.6428 31.6902 32.846 33.2366 34.0493C31.5646 35.5985 29.4687 36.6523 27.255 37.1635C24.8058 37.7218 22.2154 37.7376 19.7819 37.0849C17.8508 36.5737 16.0375 35.6536 14.4754 34.4032C12.8348 33.0977 11.4689 31.4148 10.519 29.5274Z" fill="#34A853"/>
</svg>
