<svg width="16" height="16" viewBox="0 0 16 16" fill="none" xmlns="http://www.w3.org/2000/svg">
<path d="M13.6133 3.05335C13.2789 2.71773 12.8815 2.45144 12.4439 2.26974C12.0063 2.08804 11.5371 1.99451 11.0633 1.99451C10.5895 1.99451 10.1204 2.08804 9.68278 2.26974C9.2452 2.45144 8.84778 2.71773 8.51333 3.05335L8 3.57335L7.48666 3.05335C7.15221 2.71773 6.7548 2.45144 6.31721 2.26974C5.87962 2.08804 5.41047 1.99451 4.93666 1.99451C4.46285 1.99451 3.9937 2.08804 3.55612 2.26974C3.11853 2.45144 2.72112 2.71773 2.38666 3.05335C0.97333 4.46668 0.886663 6.85335 2.66666 8.66668L8 14L13.3333 8.66668C15.1133 6.85335 15.0267 4.46668 13.6133 3.05335Z" fill="#EE6955"/>
</svg>
