<svg width="41" height="40" viewBox="0 0 41 40" fill="none" xmlns="http://www.w3.org/2000/svg">
<path d="M39.7031 0.623047H0.859375C0.384828 0.623047 0 1.00788 0 1.48242V39.123C0 39.5976 0.384828 39.9824 0.859375 39.9824H32.5703C33.0449 39.9824 33.4297 39.5976 33.4297 39.123C33.4297 38.6485 33.0449 38.2637 32.5703 38.2637H1.71875V8.5293H38.8344C38.8376 8.5293 38.8407 8.52887 38.8438 8.52878V26.4043C38.8438 26.8788 39.2286 27.2637 39.7031 27.2637C40.1777 27.2637 40.5625 26.8788 40.5625 26.4043V1.48242C40.5625 1.00788 40.1777 0.623047 39.7031 0.623047ZM38.8438 6.81106C38.8406 6.81106 38.8375 6.81055 38.8344 6.81055H1.71875V2.3418H38.8438V6.81106Z" fill="#7161BA"/>
</svg>
