<svg width="44" height="45" viewBox="0 0 44 45" fill="none" xmlns="http://www.w3.org/2000/svg">
<path d="M44 10.9479C44 5.07815 39.2246 0.302734 33.3548 0.302734C28.7306 0.302734 24.7968 3.27202 23.3306 7.39951H2.83871C2.05594 7.39951 1.41935 8.03609 1.41935 8.81886V25.8511C0.636581 25.8511 0 26.4877 0 27.2705V42.8834C0 43.6662 0.636581 44.3027 1.41935 44.3027H19.871C20.6537 44.3027 21.2903 43.6662 21.2903 42.8834V40.0447H41.1613C41.9441 40.0447 42.5806 39.4081 42.5806 38.6253V16.2357C43.4784 14.6758 44 12.8733 44 10.9479ZM38.3226 30.5251L33.061 35.7866H21.2903V27.2705C21.2903 26.4877 20.6537 25.8511 19.871 25.8511H5.67742V16.9191L10.939 11.6576H22.7459C22.7778 12.1387 22.8303 12.6149 22.9247 13.0769H11.3548C10.5721 13.0769 9.93548 13.7135 9.93548 14.4963V17.335C9.93548 18.1178 10.5721 18.7543 11.3548 18.7543H26.1424C28.0415 20.5101 30.5708 21.5931 33.3548 21.5931C35.1489 21.5931 36.8379 21.1424 38.3226 20.3554V30.5251ZM38.3226 32.532V35.7866H35.068L38.3226 32.532ZM8.51613 27.2705H12.7742V31.7996L10.6452 30.7351L8.51613 31.7996V27.2705ZM5.67742 14.9122V11.6576H8.932L5.67742 14.9122ZM29.8064 10.9479C29.8064 9.74357 29.9988 8.54635 30.3522 7.39951H36.3568C36.7109 8.54635 36.9032 9.74357 36.9032 10.9479C36.9032 12.1522 36.7109 13.3494 36.3575 14.4963H30.3529C29.9988 13.3494 29.8064 12.1522 29.8064 10.9479ZM33.3548 2.19544L34.4903 3.70919C35.019 4.4139 35.4597 5.17893 35.821 5.98015H30.8894C31.2506 5.17964 31.6914 4.4139 32.2201 3.70919L33.3548 2.19544ZM35.821 15.9156C35.4597 16.7162 35.019 17.4819 34.4903 18.1866L33.3548 19.7003L32.2194 18.1866C31.6906 17.4819 31.2499 16.7169 30.8887 15.9156H35.821ZM31.0839 19.0382L31.8333 20.0374C29.2167 19.6003 26.9734 18.0645 25.5931 15.9156H29.3501C29.7894 17.0249 30.3657 18.0809 31.0839 19.0382ZM24.8593 17.335H11.3548V14.4963H23.3306C23.6961 15.5246 24.2135 16.4791 24.8593 17.335ZM34.8764 20.0374L35.6258 19.0382C36.344 18.0809 36.9203 17.0256 37.3595 15.9156H41.1166C39.7363 18.0645 37.4923 19.6003 34.8764 20.0374ZM41.8688 14.4963H37.8329C38.1487 13.3423 38.3226 12.1487 38.3226 10.9479C38.3226 9.74712 38.1494 8.55344 37.8329 7.39951H41.8688C42.3259 8.49241 42.5806 9.69106 42.5806 10.9479C42.5806 12.2047 42.3259 13.4034 41.8688 14.4963ZM41.1166 5.98015H37.3595C36.9203 4.87093 36.344 3.81493 35.6258 2.85757L34.8764 1.85835C37.4923 2.29551 39.7363 3.83125 41.1166 5.98015ZM31.8333 1.85835L31.0839 2.85757C30.3657 3.81493 29.7894 4.87022 29.3501 5.98015H25.5931C26.9734 3.83125 29.2174 2.29551 31.8333 1.85835ZM24.8408 7.39951H28.8768C28.5603 8.55344 28.3871 9.74712 28.3871 10.9479C28.3871 12.1487 28.5603 13.3423 28.8768 14.4963H24.8408C24.3838 13.4034 24.129 12.2047 24.129 10.9479C24.129 9.69106 24.3838 8.49241 24.8408 7.39951ZM2.83871 8.81886H22.924C22.8296 9.28086 22.7771 9.75706 22.7452 10.2382H4.25806V25.8511H2.83871V8.81886ZM1.41935 42.8834V27.2705H7.09677V34.0962L10.6452 32.322L14.1935 34.0962V27.2705H19.871L19.8717 42.8834H1.41935ZM41.1613 38.6253H21.2903V37.206H39.7419V19.4434C40.2529 19.0581 40.7277 18.6294 41.1613 18.1603V38.6253Z" fill="#7161BA"/>
</svg>
