<svg width="104" height="104" viewBox="0 0 104 104" fill="none" xmlns="http://www.w3.org/2000/svg">
<g filter="url(#filter0_d_514_2315)">
<circle cx="52" cy="48" r="32" fill="#F5F5F7"/>
<path fill-rule="evenodd" clip-rule="evenodd" d="M52 68C52 68 67 57.8734 67 42.6835C67 34.574 60.2843 28 52 28C43.7157 28 37 34.574 37 42.6835C37 57.3671 52 68 52 68ZM52 50C55.3137 50 58 47.3137 58 44C58 40.6863 55.3137 38 52 38C48.6863 38 46 40.6863 46 44C46 47.3137 48.6863 50 52 50Z" fill="#7161BA"/>
</g>
<defs>
<filter id="filter0_d_514_2315" x="0" y="0" width="104" height="104" filterUnits="userSpaceOnUse" color-interpolation-filters="sRGB">
<feFlood flood-opacity="0" result="BackgroundImageFix"/>
<feColorMatrix in="SourceAlpha" type="matrix" values="0 0 0 0 0 0 0 0 0 0 0 0 0 0 0 0 0 0 127 0" result="hardAlpha"/>
<feOffset dy="4"/>
<feGaussianBlur stdDeviation="10"/>
<feColorMatrix type="matrix" values="0 0 0 0 0.443137 0 0 0 0 0.380392 0 0 0 0 0.729412 0 0 0 0.2 0"/>
<feBlend mode="normal" in2="BackgroundImageFix" result="effect1_dropShadow_514_2315"/>
<feBlend mode="normal" in="SourceGraphic" in2="effect1_dropShadow_514_2315" result="shape"/>
</filter>
</defs>
</svg>
