<svg width="20" height="20" viewBox="0 0 20 20" fill="none" xmlns="http://www.w3.org/2000/svg">
<path d="M1.66675 9.99967L0.885879 9.37498L0.386123 9.99967L0.885879 10.6244L1.66675 9.99967ZM9.16675 10.9997C9.71903 10.9997 10.1667 10.552 10.1667 9.99967C10.1667 9.44739 9.71903 8.99967 9.16675 8.99967V10.9997ZM4.21921 5.20831L0.885879 9.37498L2.44762 10.6244L5.78095 6.4577L4.21921 5.20831ZM0.885879 10.6244L4.21921 14.791L5.78095 13.5416L2.44762 9.37498L0.885879 10.6244ZM1.66675 10.9997H9.16675V8.99967H1.66675V10.9997Z" fill="#7161BA"/>
<path d="M8.86785 16.3338L8.13515 17.0144L8.86785 16.3338ZM8.74976 16.1944L9.5415 15.5836L8.74976 16.1944ZM17.3958 16.9707L16.7083 16.2446L17.3958 16.9707ZM17.143 17.1849L16.5397 16.3874L17.143 17.1849ZM17.143 2.81571L16.5397 3.61326L17.143 2.81571ZM17.3958 3.02991L16.7083 3.75606L17.3958 3.02991ZM8.86657 3.6682L9.59991 4.34805L8.86657 3.6682ZM8.75091 3.80472L9.54208 4.41632L8.75091 3.80472ZM17.3333 8.52429V11.4764H19.3333V8.52429H17.3333ZM9.33325 6.77694V6.6143H7.33325V6.77694H9.33325ZM11.7321 16.2197C10.9633 16.0915 10.4722 16.0081 10.1107 15.9035C9.77294 15.8058 9.66206 15.7195 9.60055 15.6533L8.13515 17.0144C8.53768 17.4478 9.03145 17.6733 9.555 17.8248C10.0548 17.9693 10.6816 18.0722 11.4033 18.1925L11.7321 16.2197ZM7.33325 13.3886C7.33325 14.1201 7.33166 14.7551 7.39209 15.2717C7.45539 15.813 7.59674 16.337 7.95801 16.8053L9.5415 15.5836C9.48626 15.512 9.41937 15.3884 9.37854 15.0394C9.33485 14.6658 9.33325 14.1678 9.33325 13.3886H7.33325ZM9.60055 15.6533C9.57982 15.631 9.56011 15.6077 9.5415 15.5836L7.95801 16.8053C8.01384 16.8776 8.07295 16.9474 8.13515 17.0144L9.60055 15.6533ZM17.3333 11.4764C17.3333 13.0404 17.3312 14.1131 17.2249 14.9103C17.1217 15.6839 16.9394 16.0258 16.7083 16.2446L18.0834 17.6969C18.7897 17.0281 19.0761 16.1585 19.2073 15.1746C19.3354 14.2143 19.3333 12.9835 19.3333 11.4764H17.3333ZM11.4033 18.1925C12.8905 18.4403 14.1045 18.6448 15.0731 18.6764C16.0653 18.7088 16.9704 18.5694 17.7462 17.9825L16.5397 16.3874C16.286 16.5793 15.9187 16.7029 15.1383 16.6775C14.3342 16.6512 13.2754 16.4769 11.7321 16.2197L11.4033 18.1925ZM16.7083 16.2446C16.6548 16.2953 16.5985 16.3429 16.5397 16.3874L17.7462 17.9825C17.8638 17.8936 17.9763 17.7982 18.0834 17.6969L16.7083 16.2446ZM11.7337 3.78072C13.2764 3.52359 14.3348 3.34932 15.1386 3.32312C15.9187 3.29769 16.286 3.42133 16.5397 3.61326L17.7462 2.01815C16.9704 1.43134 16.0656 1.29184 15.0735 1.32418C14.1052 1.35574 12.8915 1.56016 11.4049 1.80793L11.7337 3.78072ZM19.3333 8.52429C19.3333 7.01714 19.3354 5.78636 19.2073 4.82605C19.0761 3.84215 18.7897 2.97255 18.0834 2.30376L16.7083 3.75606C16.9394 3.97482 17.1217 4.3168 17.2249 5.09039C17.3312 5.88758 17.3333 6.96022 17.3333 8.52429H19.3333ZM16.5397 3.61326C16.5985 3.65772 16.6548 3.70539 16.7083 3.75606L18.0834 2.30376C17.9763 2.20241 17.8638 2.10707 17.7462 2.01815L16.5397 3.61326ZM11.4049 1.80793C10.6823 1.92835 10.0547 2.03133 9.55438 2.17615C9.03017 2.32788 8.5359 2.55398 8.13322 2.98834L9.59991 4.34805C9.66151 4.28161 9.77244 4.19513 10.1104 4.0973C10.4723 3.99257 10.9639 3.90901 11.7337 3.78072L11.4049 1.80793ZM9.33325 6.6143C9.33325 5.83394 9.33485 5.33527 9.37867 4.96112C9.4196 4.61165 9.48667 4.488 9.54208 4.41632L7.95974 3.19312C7.59749 3.66173 7.45573 4.18644 7.39225 4.72847C7.33165 5.24583 7.33325 5.8818 7.33325 6.6143H9.33325ZM8.13322 2.98834C8.07237 3.05398 8.01449 3.12231 7.95974 3.19312L9.54208 4.41632C9.56033 4.39271 9.57962 4.36993 9.59991 4.34805L8.13322 2.98834Z" fill="#7161BA"/>
</svg>
