<svg width="20" height="20" viewBox="0 0 20 20" fill="none" xmlns="http://www.w3.org/2000/svg">
<path d="M2.5 7.08301C2.5 6.38602 2.5 6.03753 2.55764 5.74774C2.79436 4.55767 3.72466 3.62737 4.91473 3.39065C5.20453 3.33301 5.55302 3.33301 6.25 3.33301H13.75C14.447 3.33301 14.7955 3.33301 15.0853 3.39065C16.2753 3.62737 17.2056 4.55767 17.4424 5.74774C17.5 6.03753 17.5 6.38602 17.5 7.08301V7.70801C17.5 8.05319 17.2202 8.33301 16.875 8.33301H16.6667C15.7462 8.33301 15 9.0792 15 9.99967V9.99967C15 10.9201 15.7462 11.6663 16.6667 11.6663H16.875C17.2202 11.6663 17.5 11.9462 17.5 12.2913V12.9163C17.5 13.6133 17.5 13.9618 17.4424 14.2516C17.2056 15.4417 16.2753 16.372 15.0853 16.6087C14.7955 16.6663 14.447 16.6663 13.75 16.6663H6.25C5.55302 16.6663 5.20453 16.6663 4.91473 16.6087C3.72466 16.372 2.79436 15.4417 2.55764 14.2516C2.5 13.9618 2.5 13.6133 2.5 12.9163V12.2913C2.5 11.9462 2.77982 11.6663 3.125 11.6663H3.33333C4.25381 11.6663 5 10.9201 5 9.99967V9.99967C5 9.0792 4.25381 8.33301 3.33333 8.33301H3.125C2.77982 8.33301 2.5 8.05319 2.5 7.70801V7.08301Z" stroke="#7161BA" stroke-width="2"/>
<path d="M9.6308 8.9068C9.7709 8.54432 9.84096 8.36308 9.95477 8.33796C9.9847 8.33136 10.0156 8.33136 10.0456 8.33796C10.1594 8.36308 10.2294 8.54432 10.3695 8.9068C10.4492 9.11293 10.489 9.216 10.5636 9.2861C10.5845 9.30577 10.6072 9.32328 10.6314 9.33839C10.7175 9.39228 10.8251 9.40228 11.0402 9.42227C11.4043 9.45612 11.5864 9.47304 11.642 9.58077C11.6535 9.60308 11.6613 9.62724 11.6652 9.65224C11.6836 9.77295 11.5497 9.89932 11.282 10.1521L11.2077 10.2223C11.0825 10.3404 11.02 10.3995 10.9838 10.4732C10.9621 10.5175 10.9475 10.5651 10.9407 10.6142C10.9293 10.6961 10.9476 10.7818 10.9843 10.9533L10.9974 11.0145C11.0631 11.3219 11.096 11.4756 11.0549 11.5512C11.0181 11.6191 10.9502 11.6625 10.8752 11.6662C10.7918 11.6704 10.6742 11.5709 10.4389 11.372C10.284 11.2409 10.2065 11.1754 10.1205 11.1498C10.0418 11.1264 9.95848 11.1264 9.87987 11.1498C9.79385 11.1754 9.71636 11.2409 9.56139 11.372C9.32616 11.5709 9.20855 11.6704 9.12508 11.6662C9.0501 11.6625 8.98223 11.6191 8.94538 11.5512C8.90436 11.4756 8.93722 11.3219 9.00295 11.0145L9.01604 10.9533C9.05269 10.7818 9.07101 10.6961 9.05964 10.6142C9.05282 10.5651 9.03826 10.5175 9.01655 10.4732C8.98036 10.3995 8.91778 10.3404 8.79263 10.2223L8.71829 10.1521C8.45059 9.89932 8.31674 9.77295 8.33517 9.65224C8.33899 9.62724 8.34682 9.60308 8.35834 9.58077C8.41394 9.47304 8.59601 9.45612 8.96015 9.42227C9.17526 9.40228 9.28281 9.39228 9.36897 9.33839C9.39313 9.32328 9.41583 9.30577 9.43674 9.2861C9.51128 9.216 9.55112 9.11293 9.6308 8.9068Z" fill="#7161BA" stroke="#7161BA"/>
</svg>
