<svg width="20" height="20" viewBox="0 0 20 20" fill="none" xmlns="http://www.w3.org/2000/svg">
<path d="M2.5 7.08325C2.5 6.38627 2.5 6.03778 2.55764 5.74798C2.79436 4.55791 3.72466 3.62762 4.91473 3.3909C5.20453 3.33325 5.55302 3.33325 6.25 3.33325H13.75C14.447 3.33325 14.7955 3.33325 15.0853 3.3909C16.2753 3.62762 17.2056 4.55791 17.4424 5.74798C17.5 6.03778 17.5 6.38627 17.5 7.08325V7.70825C17.5 8.05343 17.2202 8.33325 16.875 8.33325H16.6667C15.7462 8.33325 15 9.07944 15 9.99992V9.99992C15 10.9204 15.7462 11.6666 16.6667 11.6666H16.875C17.2202 11.6666 17.5 11.9464 17.5 12.2916V12.9166C17.5 13.6136 17.5 13.9621 17.4424 14.2519C17.2056 15.4419 16.2753 16.3722 15.0853 16.6089C14.7955 16.6666 14.447 16.6666 13.75 16.6666H6.25C5.55302 16.6666 5.20453 16.6666 4.91473 16.6089C3.72466 16.3722 2.79436 15.4419 2.55764 14.2519C2.5 13.9621 2.5 13.6136 2.5 12.9166V12.2916C2.5 11.9464 2.77982 11.6666 3.125 11.6666H3.33333C4.25381 11.6666 5 10.9204 5 9.99992V9.99992C5 9.07944 4.25381 8.33325 3.33333 8.33325H3.125C2.77982 8.33325 2.5 8.05343 2.5 7.70825V7.08325Z" stroke="#7161BA" stroke-width="2"/>
<path d="M9.6308 8.90704C9.7709 8.54456 9.84096 8.36332 9.95477 8.33821C9.9847 8.3316 10.0156 8.3316 10.0456 8.33821C10.1594 8.36332 10.2294 8.54456 10.3695 8.90704C10.4492 9.11318 10.489 9.21625 10.5636 9.28635C10.5845 9.30601 10.6072 9.32352 10.6314 9.33864C10.7175 9.39253 10.8251 9.40252 11.0402 9.42252C11.4043 9.45636 11.5864 9.47328 11.642 9.58101C11.6535 9.60333 11.6613 9.62748 11.6652 9.65248C11.6836 9.77319 11.5497 9.89956 11.282 10.1523L11.2077 10.2225C11.0825 10.3407 11.02 10.3997 10.9838 10.4735C10.9621 10.5177 10.9475 10.5653 10.9407 10.6145C10.9293 10.6964 10.9476 10.7821 10.9843 10.9535L10.9974 11.0148C11.0631 11.3222 11.096 11.4759 11.0549 11.5514C11.0181 11.6193 10.9502 11.6627 10.8752 11.6665C10.7918 11.6706 10.6742 11.5711 10.4389 11.3722C10.284 11.2412 10.2065 11.1756 10.1205 11.1501C10.0418 11.1267 9.95848 11.1267 9.87987 11.1501C9.79385 11.1756 9.71636 11.2412 9.56139 11.3722C9.32616 11.5711 9.20855 11.6706 9.12508 11.6665C9.0501 11.6627 8.98223 11.6193 8.94538 11.5514C8.90436 11.4759 8.93722 11.3222 9.00295 11.0148L9.01604 10.9535C9.05269 10.7821 9.07101 10.6964 9.05964 10.6145C9.05282 10.5653 9.03826 10.5177 9.01655 10.4735C8.98036 10.3997 8.91778 10.3407 8.79263 10.2225L8.71829 10.1523C8.45059 9.89956 8.31674 9.77319 8.33517 9.65248C8.33899 9.62748 8.34682 9.60333 8.35834 9.58101C8.41394 9.47328 8.59601 9.45636 8.96015 9.42252C9.17526 9.40252 9.28281 9.39253 9.36897 9.33864C9.39313 9.32352 9.41583 9.30601 9.43674 9.28635C9.51128 9.21625 9.55112 9.11318 9.6308 8.90704Z" fill="#7161BA" stroke="#7161BA"/>
</svg>
