<svg width="20" height="20" viewBox="0 0 20 20" fill="none" xmlns="http://www.w3.org/2000/svg">
<path d="M1.25 16.874H18.75" stroke="#7161BA" stroke-width="2" stroke-linecap="round" stroke-linejoin="round"/>
<path d="M11.2495 16.874V3.12402C11.2495 2.95826 11.1837 2.79929 11.0665 2.68208C10.9493 2.56487 10.7903 2.49902 10.6245 2.49902H3.12454C2.95878 2.49902 2.79981 2.56487 2.6826 2.68208C2.56539 2.79929 2.49954 2.95826 2.49954 3.12402V16.874" stroke="#7161BA" stroke-width="2" stroke-linecap="round" stroke-linejoin="round"/>
<path d="M17.4995 16.874V8.12402C17.4995 7.95826 17.4337 7.79929 17.3165 7.68208C17.1993 7.56487 17.0403 7.49902 16.8745 7.49902H11.2495" stroke="#7161BA" stroke-width="2" stroke-linecap="round" stroke-linejoin="round"/>
<path d="M4.99954 5.62402H7.49954" stroke="#7161BA" stroke-width="2" stroke-linecap="round" stroke-linejoin="round"/>
<path d="M6.24954 10.624H8.74954" stroke="#7161BA" stroke-width="2" stroke-linecap="round" stroke-linejoin="round"/>
<path d="M4.99954 13.749H7.49954" stroke="#7161BA" stroke-width="2" stroke-linecap="round" stroke-linejoin="round"/>
<path d="M13.7495 13.749H14.9995" stroke="#7161BA" stroke-width="2" stroke-linecap="round" stroke-linejoin="round"/>
<path d="M13.7495 10.624H14.9995" stroke="#7161BA" stroke-width="2" stroke-linecap="round" stroke-linejoin="round"/>
</svg>
