<svg width="20" height="20" viewBox="0 0 20 20" fill="none" xmlns="http://www.w3.org/2000/svg">
<path d="M10.3995 14.8015L10.8661 15.686H10.8661L10.3995 14.8015ZM9.60047 14.8015L9.13395 15.686H9.13395L9.60047 14.8015ZM14.8333 7.50033C14.8333 9.1978 13.9854 10.6127 12.8939 11.7327C11.8025 12.8526 10.5457 13.5938 9.93302 13.917L10.8661 15.686C11.5698 15.3148 13.0298 14.4589 14.3263 13.1285C15.6226 11.7983 16.8333 9.90975 16.8333 7.50033H14.8333ZM10 2.66699C12.6694 2.66699 14.8333 4.83095 14.8333 7.50033H16.8333C16.8333 3.72638 13.774 0.666992 10 0.666992V2.66699ZM5.16667 7.50033C5.16667 4.83095 7.33063 2.66699 10 2.66699V0.666992C6.22606 0.666992 3.16667 3.72638 3.16667 7.50033H5.16667ZM10.067 13.917C9.45432 13.5938 8.19748 12.8526 7.10611 11.7327C6.01466 10.6127 5.16667 9.1978 5.16667 7.50033H3.16667C3.16667 9.90975 4.37739 11.7983 5.67375 13.1285C6.97018 14.4589 8.43024 15.3148 9.13395 15.686L10.067 13.917ZM9.93302 13.917C9.95058 13.9077 9.9739 13.9011 10 13.9011C10.0261 13.9011 10.0494 13.9077 10.067 13.917L9.13395 15.686C9.67786 15.9729 10.3222 15.9729 10.8661 15.686L9.93302 13.917ZM11.5 7.50033C11.5 8.32875 10.8284 9.00033 10 9.00033V11.0003C11.933 11.0003 13.5 9.43332 13.5 7.50033H11.5ZM10 6.00033C10.8284 6.00033 11.5 6.6719 11.5 7.50033H13.5C13.5 5.56733 11.933 4.00033 10 4.00033V6.00033ZM8.50001 7.50033C8.50001 6.6719 9.17158 6.00033 10 6.00033V4.00033C8.06701 4.00033 6.50001 5.56733 6.50001 7.50033H8.50001ZM10 9.00033C9.17158 9.00033 8.50001 8.32875 8.50001 7.50033H6.50001C6.50001 9.43332 8.06701 11.0003 10 11.0003V9.00033Z" fill="#7161BA"/>
<path d="M16.4952 14.583C17.1535 14.9631 17.5 15.3942 17.5 15.833C17.5 16.2718 17.1535 16.703 16.4952 17.083C15.8369 17.4631 14.8901 17.7787 13.75 17.9981C12.6099 18.2175 11.3165 18.333 10 18.333C8.68348 18.333 7.39014 18.2175 6.25 17.9981C5.10986 17.7787 4.16307 17.4631 3.50481 17.083C2.84655 16.703 2.5 16.2718 2.5 15.833C2.5 15.3942 2.84655 14.9631 3.50481 14.583" stroke="#7161BA" stroke-width="2" stroke-linecap="round"/>
</svg>
