<svg width="20" height="20" viewBox="0 0 20 20" fill="none" xmlns="http://www.w3.org/2000/svg">
<path d="M10.3994 14.801L10.8659 15.6855L10.8659 15.6855L10.3994 14.801ZM9.6003 14.801L9.13378 15.6855L9.13378 15.6855L9.6003 14.801ZM14.8332 7.49984C14.8332 9.19731 13.9852 10.6122 12.8937 11.7322C11.8024 12.8521 10.5455 13.5933 9.93285 13.9165L10.8659 15.6855C11.5696 15.3143 13.0297 14.4584 14.3261 13.1281C15.6224 11.7978 16.8332 9.90927 16.8332 7.49984H14.8332ZM9.99984 2.6665C12.6692 2.6665 14.8332 4.83046 14.8332 7.49984H16.8332C16.8332 3.72589 13.7738 0.666504 9.99984 0.666504V2.6665ZM5.1665 7.49984C5.1665 4.83046 7.33046 2.6665 9.99984 2.6665V0.666504C6.22589 0.666504 3.1665 3.72589 3.1665 7.49984H5.1665ZM10.0668 13.9165C9.45415 13.5933 8.19731 12.8521 7.10594 11.7322C6.01449 10.6122 5.1665 9.19731 5.1665 7.49984H3.1665C3.1665 9.90927 4.37723 11.7978 5.67358 13.1281C6.97001 14.4584 8.43007 15.3143 9.13378 15.6855L10.0668 13.9165ZM9.93285 13.9165C9.95042 13.9072 9.97374 13.9007 9.99984 13.9007C10.0259 13.9007 10.0493 13.9072 10.0668 13.9165L9.13378 15.6855C9.67769 15.9724 10.322 15.9724 10.8659 15.6855L9.93285 13.9165ZM11.4998 7.49984C11.4998 8.32826 10.8283 8.99984 9.99984 8.99984V10.9998C11.9328 10.9998 13.4998 9.43283 13.4998 7.49984H11.4998ZM9.99984 5.99984C10.8283 5.99984 11.4998 6.67141 11.4998 7.49984H13.4998C13.4998 5.56684 11.9328 3.99984 9.99984 3.99984V5.99984ZM8.49984 7.49984C8.49984 6.67141 9.17141 5.99984 9.99984 5.99984V3.99984C8.06684 3.99984 6.49984 5.56684 6.49984 7.49984H8.49984ZM9.99984 8.99984C9.17141 8.99984 8.49984 8.32826 8.49984 7.49984H6.49984C6.49984 9.43283 8.06684 10.9998 9.99984 10.9998V8.99984Z" fill="#7161BA"/>
<path d="M16.4952 14.5835C17.1535 14.9635 17.5 15.3947 17.5 15.8335C17.5 16.2723 17.1535 16.7034 16.4952 17.0835C15.8369 17.4635 14.8901 17.7791 13.75 17.9986C12.6099 18.218 11.3165 18.3335 10 18.3335C8.68348 18.3335 7.39014 18.218 6.25 17.9986C5.10986 17.7791 4.16307 17.4635 3.50481 17.0835C2.84655 16.7034 2.5 16.2723 2.5 15.8335C2.5 15.3947 2.84655 14.9635 3.50481 14.5835" stroke="#7161BA" stroke-width="2" stroke-linecap="round"/>
</svg>
