<svg width="96" height="96" viewBox="0 0 96 96" fill="none" xmlns="http://www.w3.org/2000/svg">
<circle cx="48" cy="48" r="47.5" stroke="#101012"/>
<path d="M24.7936 50.2968C24.5246 50.2968 24.3452 50.1829 24.3452 49.864C24.3452 48.1555 25.3766 43.1212 25.6905 41.6177C25.7578 41.2532 25.7578 40.9799 25.7578 40.8204C25.7578 40.7749 25.7129 40.6837 25.6681 40.6154C27.0133 39.6814 28.3586 38.7474 29.6591 37.8363C32.8653 36.9023 36.2285 35.9228 38.8967 33.9637C39.7487 33.3259 40.0402 32.8019 40.0402 32.4374C40.0402 32.1641 39.7038 31.7313 39.0985 31.7313C38.4034 31.7313 37.3944 32.0502 35.7577 33.0069C34.1209 33.9637 31.251 35.8772 28.6053 37.7224C27.1479 38.2235 25.7802 38.6563 24.5918 39.0891C24.4349 39.1575 24.3004 39.203 24.1658 39.2486C25.6008 36.3556 26.5873 33.6676 26.5873 31.7313C26.5873 31.3896 26.408 31.0934 26.408 31.0023C26.4977 31.0023 27.2151 32.3919 27.2824 32.3919C27.3945 32.3919 27.529 32.0046 27.529 31.6857C27.529 31.754 26.8788 30 26.1613 30C25.556 30 25.8474 32.4602 25.2645 34.6015C24.7936 36.2417 24.121 37.9274 23.2914 39.6131C21.0941 40.5698 19.9955 41.3899 19.9955 41.6405C19.9955 41.7316 20.0627 41.7772 20.2421 41.7772C20.4887 41.7772 20.9596 41.5494 21.6322 41.0938C22.0134 40.8432 22.4394 40.5926 22.9102 40.342C22.417 41.3443 21.8564 42.3239 21.2959 43.3034C21.1838 43.3718 21.0941 43.4401 20.982 43.5084C20.9147 42.5745 20.1524 41.7544 19.4349 41.7544C18.7847 41.7544 17.6636 43.2123 17.6636 44.1235C17.6636 44.7841 18.2018 45.0802 18.852 45.0802C19.2556 45.0802 19.704 44.9436 20.1748 44.7158C20.13 44.9436 20.0851 45.1714 20.0179 45.4219C19.0986 46.971 18.1345 48.4744 17.2601 49.9096C15.1525 53.3493 13 56.1512 13 57.4952C13 57.6775 13.2691 57.7914 13.4036 57.7914C15.4439 57.7914 19.5695 50.0007 20.7129 45.5586C21.0941 44.898 21.4753 44.2374 21.8564 43.554C22.686 42.8934 23.4484 42.1872 24.0313 41.7772C24.39 41.5266 24.7488 41.276 25.13 41.0027C24.5246 42.6884 23.5156 47.586 23.5156 50.3652C23.5156 50.9802 23.8968 51.1397 24.3452 51.1397C25.7353 51.1397 28.4707 49.1578 29.9505 48.1555C30.4887 47.791 30.9819 47.3354 30.9819 47.176C30.9819 47.1076 30.9371 47.0621 30.825 47.0621C30.399 47.0621 27.8205 48.9756 26.3407 49.6818C25.6905 50.0007 25.1748 50.2968 24.7936 50.2968ZM38.7621 32.483C38.9191 32.483 38.9864 32.5741 38.9864 32.6652C38.9864 32.893 38.4931 33.2803 37.7083 33.7815C35.7353 35.0571 33.4034 36.0139 31.0716 36.8567C34.7711 34.3737 37.8429 32.483 38.7621 32.483ZM13.6054 57.1763C13.6054 56.903 15.9372 53.3721 17.9551 50.0918C18.3139 49.4995 18.7174 48.8389 19.121 48.2011C17.6188 52.0053 15.0403 56.2879 13.6054 57.1763ZM23.8295 39.9092C24.3676 39.6814 24.9057 39.4764 25.4439 39.2486C26.0941 38.998 26.7891 38.7474 27.4842 38.5197C26.2959 39.3397 25.2196 40.137 24.3676 40.7521C24.1434 40.9343 23.4259 41.5949 22.5739 42.3011C22.9999 41.5038 23.4484 40.7065 23.8295 39.9092ZM19.5695 42.415C20.0403 42.415 20.3094 42.825 20.3094 43.4857C20.3094 43.6451 20.2869 43.8046 20.2869 43.964C19.7937 44.2602 19.3452 44.4424 19.0089 44.4424C18.5157 44.4424 18.3587 44.2829 18.3587 43.9412C18.3587 43.3945 19.1659 42.415 19.5695 42.415Z" fill="#3B3A40"/>
<path d="M35.6298 45.3764C33.9482 47.5177 31.2128 50.2968 30.5177 50.2968C30.2935 50.2968 30.1814 50.1146 30.1814 49.8412C30.1814 48.5883 32.9168 43.8501 34.7105 43.8501C35.4729 43.8501 35.6074 44.5563 35.7868 45.0802C35.7419 45.1714 35.6746 45.2853 35.6298 45.3764ZM36.4146 44.2374C36.2128 43.6451 35.6746 43.0528 34.7105 43.0528C32.872 43.0528 29.2621 47.7455 29.2621 50.1146C29.2621 50.6841 29.5536 51.208 30.1366 51.208C30.8765 51.208 32.6926 49.5906 34.3518 47.8822C33.9258 48.7022 33.5446 49.5906 33.5446 50.2513C33.5446 50.8663 33.724 51.208 34.0827 51.208C34.4863 51.208 35.5177 50.7069 36.706 50.069C38.6791 48.9984 40.697 47.5405 40.697 47.2215C40.697 47.1532 40.6522 47.1076 40.5625 47.1076C40.1813 47.1076 37.8719 48.7478 36.5042 49.4995C35.5401 50.0235 34.9796 50.2057 34.7105 50.2057C34.576 50.2057 34.5087 50.1146 34.5087 49.9551C34.5087 48.9984 36.7509 45.6042 36.6163 45.7864C37.2217 45.0347 37.6701 44.3741 37.6701 43.9185C37.6253 43.7135 37.5356 43.5996 37.3787 43.5996C37.0424 43.5996 36.6163 44.0324 36.4146 44.2374Z" fill="#3B3A40"/>
<path d="M42.0765 44.6019C42.0989 44.4652 42.1213 44.3513 42.1213 44.2602C42.1213 43.8957 41.9644 43.759 41.7402 43.759C40.6863 43.759 40.8433 44.9436 40.4846 46.037C40.2828 46.6065 39.7222 47.791 39.6325 48.0416C39.1841 49.0667 38.0855 50.8208 38.0855 51.0713C38.0855 51.3219 38.22 51.5725 38.4666 51.5725C38.7133 51.5725 39.0047 51.3902 39.4532 50.8435C40.7536 49.2945 43.3769 46.7887 44.6101 45.627C45.35 44.9208 45.8433 44.6702 46.0899 44.6702C46.2244 44.6702 46.2917 44.7385 46.2917 44.8524C46.2917 45.4903 44.3859 48.4289 43.6908 50.4563C43.6684 50.5246 43.646 50.6157 43.646 50.6613C43.646 50.9802 43.915 51.1852 44.3634 51.1852C44.6101 51.1852 44.9016 51.1397 45.2155 51.003C47.3231 50.1146 51.0002 47.9733 51.0002 47.2671C51.0002 47.1988 50.9777 47.176 50.8881 47.176C50.776 47.176 50.5742 47.2671 50.2827 47.4493C48.7132 48.4744 46.9195 49.5679 45.6415 50.1146C45.4397 50.2057 45.3051 50.2513 45.193 50.2513C44.9912 50.2513 44.9016 50.1374 44.9016 49.9323C44.9016 49.7273 44.9912 49.454 45.1258 49.135C45.619 47.9277 47.4352 45.1258 47.4352 43.9412C47.4352 43.4857 47.2782 43.2123 46.9419 43.2123C46.7177 43.2123 46.4038 43.349 46.0002 43.6451C44.8567 44.5335 41.4711 47.5632 40.1707 48.9984C40.1482 49.0211 40.1258 49.0439 40.1034 49.0439C40.1034 48.7022 41.9419 45.3764 42.0765 44.6019Z" fill="#3B3A40"/>
<path d="M53.3087 46.5609C54.654 45.832 55.5508 45.1258 55.5508 44.169C55.5508 43.6679 55.1024 43.0984 54.4522 43.0984C51.7392 43.0984 49.7437 46.4926 49.7437 48.725C49.7437 49.8868 50.3491 51.2308 51.7616 51.2308C54.0262 51.2308 57.2324 48.725 58.3759 47.9505C58.645 47.7683 59.071 47.4038 59.071 47.2215C59.071 47.1532 59.0037 47.1304 58.914 47.1304C58.8468 47.1304 58.7571 47.1532 58.7347 47.1532C57.9051 47.4038 54.228 50.4791 51.9858 50.4791C51.0666 50.4791 50.7302 49.5906 50.7302 48.5883C50.7302 48.3378 50.7527 48.0644 50.7975 47.8138C51.6047 47.3582 52.367 47.1076 53.3087 46.5609ZM53.9813 43.8957C54.3401 43.8957 54.6316 44.0779 54.6316 44.3741C54.6316 44.898 53.802 45.4447 53.0845 45.9003C52.4567 46.2876 51.5822 46.6748 50.9993 47.0621C51.5374 45.4219 52.793 43.8957 53.9813 43.8957Z" fill="#3B3A40"/>
<path d="M60.8491 47.176C60.8491 48.8617 60.1989 50.6613 59.0778 50.6613C58.2482 50.6613 58.181 49.2945 57.5307 49.2945C57.2393 49.2945 56.9029 49.5451 56.9029 49.8412C56.9029 50.3879 57.8222 51.4358 59.2348 51.4358C60.0195 51.4358 61.9029 50.6385 63.6518 49.6818C65.4231 48.7022 67.0822 47.5632 67.0822 47.2215C67.0822 47.1532 67.0598 47.1076 66.9477 47.1076C66.7908 47.1076 66.163 47.4493 65.8266 47.6771C64.1899 48.8161 63.0688 49.3856 61.3424 50.1601C61.32 50.1829 61.1182 50.2285 61.0285 50.2285C61.0061 50.2285 60.9836 50.2057 60.9836 50.1829C61.1406 49.9779 61.3872 49.6134 61.5666 49.2489C61.8132 48.725 61.8805 47.9277 61.8805 47.381C61.8805 46.6976 61.746 46.1509 61.7235 45.4219C62.6428 44.5791 63.45 43.6679 63.45 42.8706C63.45 42.6428 63.293 42.5061 63.0688 42.5061C62.441 42.5061 61.5666 43.1667 61.2078 43.9868C61.0061 44.4196 60.9164 44.8752 60.8715 45.3308C59.6832 46.3787 58.1361 47.4721 57.3514 48.0188C57.2168 48.11 57.1496 48.2466 57.1496 48.315C57.1496 48.3833 57.1944 48.4061 57.2617 48.4061C57.7101 48.4061 59.6383 47.1988 60.58 46.4015C60.6697 46.3331 60.7594 46.2648 60.8491 46.1737V47.176ZM62.5755 43.2123C62.5755 43.5312 62.2841 43.9412 61.8581 44.4196C62.0823 43.7135 62.5755 43.1895 62.5755 43.2123Z" fill="#3B3A40"/>
<path d="M68.8192 47.176C68.8192 48.8617 68.169 50.6613 67.0479 50.6613C66.2183 50.6613 66.1511 49.2945 65.5008 49.2945C65.2094 49.2945 64.873 49.5451 64.873 49.8412C64.873 50.3879 65.7923 51.4358 67.2049 51.4358C67.9896 51.4358 69.873 50.6385 71.6219 49.6818C73.3931 48.7022 75.0523 47.5632 75.0523 47.2215C75.0523 47.1532 75.0299 47.1076 74.9178 47.1076C74.7609 47.1076 74.1331 47.4493 73.7967 47.6771C72.16 48.8161 71.0389 49.3856 69.3125 50.1601C69.29 50.1829 69.0882 50.2285 68.9986 50.2285C68.9761 50.2285 68.9537 50.2057 68.9537 50.1829C69.1107 49.9779 69.3573 49.6134 69.5367 49.2489C69.7833 48.725 69.8506 47.9277 69.8506 47.381C69.8506 46.6976 69.716 46.1509 69.6936 45.4219C70.6129 44.5791 71.4201 43.6679 71.4201 42.8706C71.4201 42.6428 71.2631 42.5061 71.0389 42.5061C70.4111 42.5061 69.5367 43.1667 69.1779 43.9868C68.9761 44.4196 68.8865 44.8752 68.8416 45.3308C67.6533 46.3787 66.1062 47.4721 65.3215 48.0188C65.1869 48.11 65.1197 48.2466 65.1197 48.315C65.1197 48.3833 65.1645 48.4061 65.2318 48.4061C65.6802 48.4061 67.6084 47.1988 68.5501 46.4015C68.6398 46.3331 68.7295 46.2648 68.8192 46.1737V47.176ZM70.5456 43.2123C70.5456 43.5312 70.2542 43.9412 69.8282 44.4196C70.0524 43.7135 70.5456 43.1895 70.5456 43.2123Z" fill="#3B3A40"/>
<path d="M74.6817 50.2968C74.4575 50.2968 74.3454 50.1146 74.3454 49.8412C74.3454 48.5883 77.0808 43.8501 78.8745 43.8501C79.5023 43.8501 79.8834 44.4652 79.8834 44.9891C79.8834 45.1258 79.861 45.2625 79.7937 45.3764C78.1121 47.5177 75.3767 50.2968 74.6817 50.2968ZM83 50.1601C83 50.0007 82.6861 49.7501 82.2825 49.7501C81.1614 49.7501 81.1166 51.003 79.3902 51.003C78.7175 51.003 78.6727 50.4335 78.6727 50.1146C78.6727 49.0439 80.6906 45.9003 80.7803 45.7864C81.4529 44.898 81.8341 44.3741 81.8341 43.9185C81.8341 43.7135 81.6996 43.5996 81.5426 43.5996C81.296 43.5996 80.87 43.9412 80.5785 44.2374C80.3767 43.6451 79.8386 43.0528 78.8745 43.0528C77.0359 43.0528 73.4261 47.7455 73.4261 50.1146C73.4261 50.6841 73.7176 51.208 74.3005 51.208C75.0404 51.208 76.8565 49.5906 78.5157 47.8822C78.1346 48.6339 77.7086 49.5906 77.7086 50.2285C77.7086 51.003 77.9328 51.5953 79.3005 51.5953C80.87 51.5953 83 50.6157 83 50.1601Z" fill="#3B3A40"/>
<path d="M39.9704 59.3468C39.9704 59.5681 39.9747 59.7872 39.9833 60.0042C39.9918 60.2211 40.0003 60.4403 40.0089 60.6616C40.09 60.6702 40.1861 60.6789 40.2971 60.6876C40.4082 60.6919 40.5214 60.6941 40.6367 60.6941C40.7733 60.6941 40.9036 60.6702 41.0274 60.6225C41.1556 60.5748 41.2666 60.5054 41.3606 60.4142C41.4545 60.3188 41.5293 60.2038 41.5848 60.0693C41.6403 59.9304 41.6681 59.7742 41.6681 59.6007C41.6681 59.4141 41.6339 59.2622 41.5656 59.1451C41.5015 59.0236 41.4075 58.9303 41.2837 58.8652C41.1598 58.7958 41.0104 58.748 40.8353 58.722C40.6644 58.696 40.4723 58.683 40.2587 58.683H39.9704V59.3468ZM40.3164 58.4421C40.4658 58.4421 40.6132 58.427 40.7584 58.3966C40.9079 58.3662 41.0403 58.3163 41.1556 58.2469C41.2709 58.1731 41.3627 58.0777 41.431 57.9605C41.5036 57.839 41.5399 57.6872 41.5399 57.5049C41.5399 57.327 41.5079 57.186 41.4438 57.0819C41.3798 56.9734 41.2986 56.891 41.2004 56.8345C41.1022 56.7738 40.9911 56.7347 40.8673 56.7174C40.7434 56.6957 40.6196 56.6849 40.4957 56.6849C40.3847 56.6849 40.2907 56.6892 40.2139 56.6979C40.137 56.7022 40.0687 56.7087 40.0089 56.7174C40.0003 56.9257 39.9918 57.1318 39.9833 57.3357C39.9747 57.5396 39.9704 57.7457 39.9704 57.954V58.4421H40.3164ZM39.4451 58.1232C39.4451 57.8369 39.4387 57.5548 39.4259 57.2771C39.4174 56.9994 39.4067 56.7217 39.3939 56.444C39.5049 56.4527 39.6181 56.4614 39.7334 56.4701C39.8487 56.4744 39.9619 56.4766 40.0729 56.4766C40.184 56.4766 40.2971 56.4722 40.4125 56.4636C40.5278 56.4505 40.6409 56.444 40.752 56.444C40.9356 56.444 41.1086 56.4592 41.2709 56.4896C41.4332 56.5156 41.5762 56.5655 41.7001 56.6393C41.8239 56.7087 41.9222 56.8042 41.9948 56.9257C42.0674 57.0472 42.1037 57.199 42.1037 57.3813C42.1037 57.7023 42.0033 57.954 41.8026 58.1362C41.6061 58.3185 41.3478 58.4465 41.0274 58.5203V58.5333C41.4075 58.5506 41.7065 58.6439 41.9243 58.8131C42.1464 58.9824 42.2574 59.2535 42.2574 59.6267C42.2574 59.8697 42.2083 60.0736 42.1101 60.2385C42.0118 60.4034 41.8837 60.5379 41.7257 60.642C41.5677 60.7418 41.3926 60.8134 41.2004 60.8568C41.0125 60.8959 40.8246 60.9154 40.6367 60.9154C40.5342 60.9154 40.4295 60.9132 40.3228 60.9089C40.2203 60.9045 40.1178 60.9024 40.0153 60.9024C39.9128 60.9024 39.8081 60.9024 39.7014 60.9024C39.5989 60.9024 39.4964 60.9067 39.3939 60.9154C39.4067 60.6377 39.4174 60.3622 39.4259 60.0888C39.4387 59.8111 39.4451 59.5291 39.4451 59.2427V58.1232Z" fill="#3B3A40"/>
<path d="M43.3614 58.1232C43.3614 57.8369 43.355 57.5548 43.3422 57.2771C43.3336 56.9994 43.3229 56.7217 43.3101 56.444C43.5023 56.4527 43.6923 56.4614 43.8803 56.4701C44.0724 56.4744 44.2646 56.4766 44.4568 56.4766C44.649 56.4766 44.839 56.4744 45.027 56.4701C45.2149 56.4614 45.4049 56.4527 45.5971 56.444C45.5843 56.5091 45.5779 56.5742 45.5779 56.6393C45.5779 56.7044 45.5843 56.7695 45.5971 56.8345C45.4604 56.8259 45.3344 56.8172 45.2191 56.8085C45.1081 56.7998 44.9885 56.7912 44.8604 56.7825C44.7365 56.7738 44.5999 56.7673 44.4504 56.763C44.3009 56.7543 44.1216 56.7499 43.9123 56.7499C43.908 56.8888 43.9016 57.0211 43.8931 57.147C43.8888 57.2728 43.8867 57.416 43.8867 57.5765C43.8867 57.7457 43.8867 57.9106 43.8867 58.0712C43.8909 58.2317 43.8931 58.3532 43.8931 58.4356C44.081 58.4356 44.2497 58.4335 44.3992 58.4291C44.5486 58.4248 44.6853 58.4205 44.8091 58.4161C44.933 58.4074 45.0462 58.4009 45.1487 58.3966C45.2554 58.3879 45.3558 58.3792 45.4498 58.3706C45.4369 58.4356 45.4305 58.5029 45.4305 58.5723C45.4305 58.6374 45.4369 58.7025 45.4498 58.7676C45.3387 58.7546 45.2085 58.7437 45.059 58.735C44.9138 58.7264 44.7664 58.722 44.617 58.722C44.4718 58.7177 44.333 58.7155 44.2006 58.7155C44.0724 58.7112 43.9699 58.709 43.8931 58.709C43.8931 58.7481 43.8909 58.7914 43.8867 58.8392C43.8867 58.8826 43.8867 58.939 43.8867 59.0084V59.6527C43.8867 59.9001 43.8867 60.104 43.8867 60.2645C43.8909 60.4251 43.8952 60.5466 43.8995 60.629C44.0404 60.629 44.1899 60.629 44.3479 60.629C44.5102 60.629 44.6682 60.6268 44.822 60.6225C44.98 60.6138 45.1273 60.6051 45.264 60.5965C45.4049 60.5835 45.5266 60.5661 45.6291 60.5444C45.6206 60.5748 45.6142 60.6095 45.6099 60.6485C45.6099 60.6832 45.6099 60.7158 45.6099 60.7462C45.6099 60.8156 45.6163 60.872 45.6291 60.9154C45.4369 60.9067 45.2448 60.9024 45.0526 60.9024C44.8647 60.9024 44.6725 60.9024 44.476 60.9024C44.2796 60.9024 44.0853 60.9024 43.8931 60.9024C43.7009 60.9024 43.5066 60.9067 43.3101 60.9154C43.3229 60.6377 43.3336 60.3622 43.3422 60.0888C43.355 59.8111 43.3614 59.5291 43.3614 59.2427V58.1232Z" fill="#3B3A40"/>
<path d="M47.2627 58.8912C47.3737 58.8912 47.489 58.8934 47.6086 58.8977C47.7282 58.9021 47.8435 58.9043 47.9545 58.9043C48.0741 58.9043 48.1937 58.9043 48.3133 58.9043C48.4329 58.8999 48.5524 58.8956 48.672 58.8912L47.9609 57.2381L47.2627 58.8912ZM50.1006 60.9154C50.0408 60.9067 49.9831 60.9024 49.9276 60.9024C49.8764 60.9024 49.8209 60.9024 49.7611 60.9024C49.7013 60.9024 49.6436 60.9024 49.5881 60.9024C49.5368 60.9024 49.4813 60.9067 49.4215 60.9154C49.3916 60.8156 49.3511 60.6963 49.2998 60.5574C49.2486 60.4142 49.1909 60.2667 49.1269 60.1148C49.0671 59.9586 49.0051 59.8024 48.9411 59.6462C48.877 59.4857 48.8172 59.3338 48.7617 59.1906C48.625 59.1863 48.4863 59.1841 48.3453 59.1841C48.2044 59.1798 48.0634 59.1776 47.9225 59.1776C47.7901 59.1776 47.6599 59.1798 47.5317 59.1841C47.4036 59.1841 47.2734 59.1863 47.141 59.1906C47.0043 59.5291 46.8805 59.8523 46.7694 60.1604C46.6584 60.4641 46.5751 60.7158 46.5196 60.9154C46.447 60.9067 46.368 60.9024 46.2826 60.9024C46.1971 60.9024 46.1181 60.9067 46.0455 60.9154C46.3915 60.1561 46.7288 59.4011 47.0577 58.6504C47.3865 57.8998 47.7175 57.1361 48.0506 56.3594H48.1724C48.2748 56.6111 48.3859 56.8844 48.5055 57.1795C48.625 57.4702 48.7468 57.7653 48.8706 58.0647C48.9945 58.364 49.1183 58.6613 49.2422 58.9563C49.366 59.2514 49.4813 59.5269 49.5881 59.7829C49.6991 60.0346 49.7974 60.2602 49.8828 60.4598C49.9725 60.6594 50.0451 60.8112 50.1006 60.9154Z" fill="#3B3A40"/>
<path d="M53.9809 58.5593C53.9809 57.9432 53.9787 57.468 53.9745 57.1339C53.9702 56.7998 53.9595 56.5699 53.9424 56.444C53.9894 56.4527 54.0343 56.4614 54.077 56.4701C54.1197 56.4744 54.1624 56.4766 54.2051 56.4766C54.2606 56.4766 54.3247 56.4657 54.3973 56.444C54.3845 56.5959 54.3717 56.7781 54.3588 56.9908C54.346 57.199 54.3354 57.4247 54.3268 57.6676C54.3183 57.9063 54.3097 58.1536 54.3012 58.4096C54.2927 58.6613 54.2862 58.9064 54.282 59.1451C54.2777 59.4358 54.2329 59.6961 54.1474 59.9261C54.0663 60.1561 53.9489 60.3513 53.7951 60.5119C53.6414 60.6724 53.4513 60.7939 53.225 60.8763C53.0029 60.9588 52.7466 61 52.4562 61C51.8156 61 51.3501 60.8525 51.0597 60.5574C50.7693 60.2624 50.6241 59.7959 50.6241 59.1581C50.6241 58.9542 50.6284 58.7741 50.6369 58.6179C50.6497 58.4573 50.6561 58.2946 50.6561 58.1297C50.6561 57.7653 50.6518 57.442 50.6433 57.16C50.6348 56.8779 50.6262 56.6393 50.6177 56.444C50.6689 56.4527 50.7244 56.4614 50.7842 56.4701C50.844 56.4744 50.8995 56.4766 50.9508 56.4766C50.9978 56.4766 51.0426 56.4744 51.0853 56.4701C51.1323 56.4614 51.1793 56.4527 51.2263 56.444C51.2177 56.5395 51.2092 56.6653 51.2006 56.8215C51.1921 56.9734 51.1836 57.147 51.175 57.3422C51.1665 57.5375 51.1601 57.7479 51.1558 57.9735C51.1515 58.1992 51.1494 58.4335 51.1494 58.6765C51.1494 58.824 51.1515 58.978 51.1558 59.1386C51.1601 59.2948 51.175 59.4488 51.2006 59.6007C51.2263 59.7482 51.2668 59.8914 51.3223 60.0302C51.3821 60.1647 51.4654 60.2841 51.5722 60.3882C51.679 60.488 51.8135 60.5683 51.9758 60.629C52.1381 60.6854 52.3388 60.7136 52.5779 60.7136C52.8128 60.7136 53.0093 60.6789 53.1673 60.6095C53.3296 60.5401 53.462 60.4489 53.5645 60.3361C53.667 60.2233 53.746 60.0931 53.8015 59.9456C53.8613 59.7981 53.904 59.6441 53.9296 59.4835C53.9553 59.323 53.9702 59.1624 53.9745 59.0019C53.9787 58.8413 53.9809 58.6938 53.9809 58.5593Z" fill="#3B3A40"/>
<path d="M56.5198 58.1297C56.5198 57.6785 56.5133 57.2294 56.5005 56.7825C56.3895 56.7825 56.272 56.7846 56.1482 56.789C56.0286 56.789 55.9069 56.7933 55.7831 56.802C55.6635 56.8063 55.546 56.8129 55.4307 56.8215C55.3197 56.8302 55.2193 56.8411 55.1296 56.8541C55.151 56.776 55.1617 56.7065 55.1617 56.6458C55.1617 56.5981 55.151 56.5308 55.1296 56.444C55.4115 56.4527 55.687 56.4614 55.956 56.4701C56.2251 56.4744 56.5005 56.4766 56.7824 56.4766C57.0643 56.4766 57.3397 56.4744 57.6088 56.4701C57.8778 56.4614 58.1533 56.4527 58.4352 56.444C58.4138 56.5308 58.4031 56.6002 58.4031 56.6523C58.4031 56.7087 58.4138 56.776 58.4352 56.8541C58.3455 56.8411 58.243 56.8302 58.1277 56.8215C58.0166 56.8129 57.8992 56.8063 57.7753 56.802C57.6558 56.7933 57.5341 56.789 57.4102 56.789C57.2906 56.7846 57.1753 56.7825 57.0643 56.7825C57.0515 57.2294 57.0451 57.6785 57.0451 58.1297V59.2492C57.0451 59.5356 57.0493 59.8176 57.0579 60.0953C57.0707 60.373 57.0835 60.6464 57.0963 60.9154C56.9981 60.9067 56.8934 60.9024 56.7824 60.9024C56.6714 60.9024 56.5667 60.9067 56.4685 60.9154C56.4813 60.6464 56.492 60.373 56.5005 60.0953C56.5133 59.8176 56.5198 59.5356 56.5198 59.2492V58.1297Z" fill="#3B3A40"/>
<path d="M60.2588 59.0865C60.2161 59.0127 60.152 58.9064 60.0666 58.7676C59.9854 58.6244 59.8936 58.4682 59.7911 58.299C59.6929 58.1254 59.5883 57.9453 59.4772 57.7588C59.3662 57.5678 59.2594 57.3878 59.1569 57.2185C59.0587 57.045 58.969 56.891 58.8879 56.7564C58.8067 56.6176 58.7448 56.5135 58.7021 56.444C58.7619 56.4527 58.8195 56.4614 58.875 56.4701C58.9348 56.4744 58.9946 56.4766 59.0544 56.4766C59.1142 56.4766 59.1719 56.4744 59.2274 56.4701C59.2872 56.4614 59.347 56.4527 59.4067 56.444C59.5989 56.8215 59.7933 57.1925 59.9897 57.557C60.1904 57.9215 60.4018 58.3011 60.6239 58.696C60.7221 58.5398 60.8246 58.3684 60.9314 58.1818C61.0382 57.9952 61.1449 57.8043 61.2517 57.6091C61.3585 57.4138 61.461 57.2185 61.5592 57.0233C61.6574 56.8237 61.7493 56.6306 61.8347 56.444C61.9414 56.4657 62.0247 56.4766 62.0845 56.4766C62.1443 56.4766 62.2276 56.4657 62.3343 56.444C62.1293 56.7608 61.9457 57.0472 61.7834 57.3032C61.6211 57.5592 61.4781 57.7913 61.3542 57.9996C61.2304 58.2078 61.1215 58.3966 61.0275 58.5658C60.9335 58.7307 60.8524 58.8804 60.7841 59.0149C60.7841 59.1754 60.7841 59.3468 60.7841 59.5291C60.7883 59.7113 60.7926 59.8914 60.7969 60.0693C60.8011 60.2428 60.8054 60.4056 60.8097 60.5574C60.8182 60.7049 60.8268 60.8243 60.8353 60.9154C60.7371 60.9067 60.6325 60.9024 60.5214 60.9024C60.4104 60.9024 60.3057 60.9067 60.2075 60.9154C60.2331 60.6898 60.2481 60.4164 60.2524 60.0953C60.2566 59.7742 60.2588 59.438 60.2588 59.0865Z" fill="#3B3A40"/>
<path d="M65.2405 59.8024C65.2405 59.9196 65.2639 60.0346 65.3109 60.1474C65.3579 60.2559 65.422 60.3535 65.5031 60.4403C65.5885 60.5227 65.6889 60.59 65.8042 60.642C65.9195 60.6898 66.0455 60.7136 66.1822 60.7136C66.4 60.7136 66.5857 60.6746 66.7395 60.5965C66.8932 60.514 67.0448 60.3969 67.1943 60.245C66.9765 59.9847 66.7694 59.7265 66.5729 59.4705C66.3765 59.2145 66.1822 58.9498 65.99 58.6765C65.7551 58.8196 65.5714 58.9758 65.439 59.1451C65.3067 59.3143 65.2405 59.5334 65.2405 59.8024ZM65.4519 57.5049C65.4519 57.3661 65.4753 57.2381 65.5223 57.1209C65.5736 57.0038 65.6419 56.9018 65.7273 56.815C65.817 56.7239 65.9216 56.6545 66.0412 56.6067C66.1608 56.5547 66.2932 56.5286 66.4384 56.5286C66.6861 56.5286 66.889 56.5916 67.047 56.7174C67.2093 56.8389 67.2904 57.019 67.2904 57.2576C67.2904 57.3791 67.2626 57.4962 67.2071 57.6091C67.1516 57.7219 67.079 57.8282 66.9893 57.928C66.9039 58.0234 66.81 58.1124 66.7075 58.1948C66.605 58.2729 66.5067 58.3402 66.4128 58.3966C66.605 58.6483 66.7929 58.8956 66.9765 59.1386C67.1602 59.3772 67.3481 59.6028 67.5402 59.8154C67.694 59.5942 67.8328 59.3837 67.9566 59.1841C68.0848 58.9802 68.2001 58.7611 68.3026 58.5268C68.3282 58.5832 68.3624 58.6331 68.4051 58.6765C68.452 58.7155 68.499 58.7524 68.546 58.7871C68.4136 58.9954 68.2812 59.1971 68.1488 59.3924C68.0164 59.5876 67.8606 59.7894 67.6812 59.9977L68.5012 60.9154C68.4328 60.9067 68.3645 60.9024 68.2962 60.9024C68.2278 60.9024 68.1595 60.9024 68.0912 60.9024C68.0314 60.9024 67.9695 60.9024 67.9054 60.9024C67.8456 60.9024 67.7858 60.9067 67.726 60.9154C67.6919 60.8677 67.6385 60.7961 67.5659 60.7006C67.4975 60.6008 67.4164 60.4945 67.3224 60.3817C67.1345 60.5726 66.9317 60.7245 66.7139 60.8373C66.5003 60.9458 66.2419 61 65.9387 61C65.7722 61 65.6141 60.9783 65.4647 60.9349C65.3195 60.8959 65.1913 60.8308 65.0803 60.7397C64.9693 60.6485 64.8796 60.5357 64.8113 60.4012C64.7472 60.2624 64.7152 60.1018 64.7152 59.9196C64.7152 59.7764 64.7451 59.6375 64.8048 59.503C64.8646 59.3642 64.9458 59.234 65.0483 59.1125C65.155 58.9867 65.2789 58.8739 65.4198 58.7741C65.5608 58.6743 65.7145 58.5897 65.8811 58.5203C65.7572 58.338 65.6547 58.1645 65.5736 57.9996C65.4924 57.8347 65.4519 57.6698 65.4519 57.5049ZM66.9573 57.2511C66.9573 57.0949 66.9103 56.9669 66.8164 56.8671C66.7267 56.763 66.6028 56.7109 66.4448 56.7109C66.2782 56.7109 66.1458 56.7695 66.0476 56.8866C65.9494 57.0038 65.9003 57.1491 65.9003 57.3227C65.9003 57.4529 65.9366 57.6047 66.0092 57.7783C66.0861 57.9518 66.1843 58.1124 66.3039 58.2599C66.5217 58.1211 66.684 57.9605 66.7907 57.7783C66.9018 57.5917 66.9573 57.416 66.9573 57.2511Z" fill="#3B3A40"/>
<path d="M71.1533 60.0693C71.1875 60.1474 71.2323 60.2277 71.2878 60.3101C71.3476 60.3882 71.4181 60.4598 71.4992 60.5249C71.5846 60.59 71.6829 60.6442 71.7939 60.6876C71.9049 60.7266 72.0288 60.7462 72.1655 60.7462C72.3064 60.7462 72.4324 60.7223 72.5434 60.6746C72.6587 60.6225 72.7548 60.5552 72.8317 60.4728C72.9128 60.386 72.9748 60.2862 73.0175 60.1734C73.0602 60.0563 73.0815 59.9326 73.0815 59.8024C73.0815 59.6028 73.0303 59.4445 72.9278 59.3273C72.8296 59.2102 72.7057 59.1125 72.5562 59.0344C72.4067 58.9563 72.2445 58.8847 72.0694 58.8196C71.8985 58.7546 71.7384 58.6743 71.5889 58.5788C71.4394 58.479 71.3134 58.3532 71.2109 58.2013C71.1127 58.0495 71.0636 57.8455 71.0636 57.5895C71.0636 57.4073 71.0956 57.2424 71.1597 57.0949C71.2238 56.943 71.3156 56.8129 71.4352 56.7044C71.559 56.5959 71.7063 56.5113 71.8772 56.4505C72.048 56.3898 72.2402 56.3594 72.4537 56.3594C72.6587 56.3594 72.836 56.3855 72.9854 56.4375C73.1349 56.4853 73.2737 56.5612 73.4018 56.6653C73.3634 56.7391 73.3314 56.8172 73.3057 56.8996C73.2801 56.9821 73.2545 57.0862 73.2289 57.212H73.152C73.1306 57.1513 73.1007 57.0862 73.0623 57.0168C73.0281 56.943 72.979 56.8758 72.915 56.815C72.8552 56.7543 72.7826 56.7044 72.6972 56.6653C72.6117 56.6219 72.5092 56.6002 72.3897 56.6002C72.2701 56.6002 72.159 56.6198 72.0565 56.6588C71.9583 56.6979 71.8708 56.7543 71.7939 56.828C71.7213 56.8975 71.6636 56.9821 71.6209 57.0819C71.5825 57.1817 71.5633 57.2901 71.5633 57.4073C71.5633 57.6112 71.6124 57.7718 71.7106 57.8889C71.8131 58.0061 71.9391 58.1059 72.0886 58.1883C72.2381 58.2664 72.3982 58.338 72.569 58.4031C72.7441 58.4638 72.9064 58.5398 73.0559 58.6309C73.2054 58.722 73.3292 58.8392 73.4275 58.9824C73.53 59.1255 73.5812 59.3165 73.5812 59.5551C73.5812 59.7547 73.5449 59.9434 73.4723 60.1213C73.404 60.2992 73.3015 60.4554 73.1648 60.59C73.0324 60.7201 72.868 60.8221 72.6715 60.8959C72.4794 60.9653 72.2594 61 72.0117 61C71.7469 61 71.5312 60.9653 71.3647 60.8959C71.2024 60.8221 71.0657 60.7397 70.9547 60.6485C70.9931 60.5487 71.0188 60.4598 71.0316 60.3817C71.0487 60.2992 71.0636 60.1951 71.0764 60.0693H71.1533Z" fill="#3B3A40"/>
<path d="M75.0226 58.6179C75.1678 58.6526 75.3194 58.6699 75.4774 58.6699C75.6098 58.6699 75.7465 58.6548 75.8874 58.6244C76.0283 58.594 76.1565 58.5398 76.2718 58.4617C76.3913 58.3792 76.4874 58.2686 76.56 58.1297C76.6369 57.9866 76.6753 57.8043 76.6753 57.583C76.6753 57.3964 76.6497 57.2446 76.5985 57.1274C76.5472 57.0103 76.4746 56.9192 76.3807 56.8541C76.291 56.789 76.1799 56.7456 76.0476 56.7239C75.9152 56.6979 75.7657 56.6849 75.5991 56.6849H75.0226V58.6179ZM74.4973 58.1297C74.4973 57.8434 74.4909 57.5635 74.4781 57.2901C74.4695 57.0124 74.4588 56.7304 74.446 56.444C74.5485 56.4527 74.651 56.4614 74.7535 56.4701C74.8603 56.4744 74.9649 56.4766 75.0674 56.4766C75.1187 56.4766 75.1806 56.4744 75.2532 56.4701C75.3258 56.4657 75.3984 56.4636 75.471 56.4636C75.5479 56.4592 75.6205 56.4549 75.6888 56.4505C75.7571 56.4462 75.8148 56.444 75.8618 56.444C75.9258 56.444 76.0048 56.4462 76.0988 56.4505C76.1928 56.4549 76.291 56.4679 76.3935 56.4896C76.5002 56.5113 76.6049 56.5438 76.7074 56.5872C76.8099 56.6306 76.9017 56.6935 76.9828 56.776C77.0683 56.8584 77.1366 56.9625 77.1878 57.0884C77.2391 57.2099 77.2647 57.3617 77.2647 57.544C77.2647 57.8303 77.2028 58.0625 77.0789 58.2404C76.9594 58.4183 76.8099 58.5571 76.6305 58.6569C76.4554 58.7567 76.2675 58.824 76.0668 58.8587C75.8703 58.8934 75.6952 58.9108 75.5415 58.9108C75.4432 58.9108 75.3536 58.9108 75.2724 58.9108C75.1913 58.9064 75.108 58.8999 75.0226 58.8912V59.2492C75.0226 59.5356 75.0268 59.8176 75.0354 60.0953C75.0482 60.373 75.061 60.6464 75.0738 60.9154C74.9756 60.9067 74.871 60.9024 74.7599 60.9024C74.6489 60.9024 74.5443 60.9067 74.446 60.9154C74.4588 60.6464 74.4695 60.373 74.4781 60.0953C74.4909 59.8176 74.4973 59.5356 74.4973 59.2492V58.1297Z" fill="#3B3A40"/>
<path d="M78.4048 58.8912C78.5159 58.8912 78.6312 58.8934 78.7508 58.8977C78.8704 58.9021 78.9857 58.9043 79.0967 58.9043C79.2163 58.9043 79.3359 58.9043 79.4555 58.9043C79.575 58.8999 79.6946 58.8956 79.8142 58.8912L79.1031 57.2381L78.4048 58.8912ZM81.2427 60.9154C81.183 60.9067 81.1253 60.9024 81.0698 60.9024C81.0185 60.9024 80.963 60.9024 80.9032 60.9024C80.8434 60.9024 80.7858 60.9024 80.7303 60.9024C80.679 60.9024 80.6235 60.9067 80.5637 60.9154C80.5338 60.8156 80.4932 60.6963 80.442 60.5574C80.3907 60.4142 80.3331 60.2667 80.269 60.1148C80.2092 59.9586 80.1473 59.8024 80.0832 59.6462C80.0192 59.4857 79.9594 59.3338 79.9039 59.1906C79.7672 59.1863 79.6284 59.1841 79.4875 59.1841C79.3465 59.1798 79.2056 59.1776 79.0647 59.1776C78.9323 59.1776 78.802 59.1798 78.6739 59.1841C78.5458 59.1841 78.4155 59.1863 78.2831 59.1906C78.1465 59.5291 78.0226 59.8523 77.9116 60.1604C77.8005 60.4641 77.7173 60.7158 77.6617 60.9154C77.5891 60.9067 77.5101 60.9024 77.4247 60.9024C77.3393 60.9024 77.2603 60.9067 77.1877 60.9154C77.5336 60.1561 77.871 59.4011 78.1999 58.6504C78.5287 57.8998 78.8597 57.1361 79.1928 56.3594H79.3145C79.417 56.6111 79.528 56.8844 79.6476 57.1795C79.7672 57.4702 79.8889 57.7653 80.0128 58.0647C80.1366 58.364 80.2605 58.6613 80.3843 58.9563C80.5082 59.2514 80.6235 59.5269 80.7303 59.7829C80.8413 60.0346 80.9395 60.2602 81.0249 60.4598C81.1146 60.6594 81.1872 60.8112 81.2427 60.9154Z" fill="#3B3A40"/>
</svg>
