<svg width="44" height="45" viewBox="0 0 44 45" fill="none" xmlns="http://www.w3.org/2000/svg">
<path d="M17.7398 44.0159C17.8871 43.799 17.9011 43.4404 17.6592 43.2022L13.9543 39.4981C13.8144 39.3387 13.3572 39.192 13.0423 39.4977L9.33753 43.2025C8.96121 43.5404 9.19187 44.3177 9.79335 44.3027H17.2037C17.4047 44.2848 17.5778 44.2457 17.7398 44.0159ZM13.4981 40.8649L15.6474 43.0136H11.3493L13.4981 40.8649Z" fill="#7161BA"/>
<path d="M5.05861 44.2896C5.16972 44.2613 5.27268 44.2274 5.38852 44.1133L11.2993 38.2024C11.551 37.9507 11.551 37.5426 11.2993 37.291C11.0475 37.0393 10.6395 37.0393 10.3877 37.291L4.66579 43.013H3.32835C2.20386 43.013 1.28906 42.0982 1.28906 40.9737V19.4625L3.87319 22.0467C3.27464 23.0958 2.96054 24.2777 2.96054 25.4956C2.96054 29.3443 6.092 32.4754 9.94113 32.4754C11.1593 32.4754 12.3409 32.1614 13.3893 31.5629L14.7522 32.9265L12.5271 35.1517C12.2754 35.4034 12.2754 35.8115 12.5271 36.0631C12.653 36.1889 12.818 36.2519 12.983 36.2519C13.1479 36.2519 13.3129 36.189 13.4388 36.0631L16.1195 33.3823C16.3669 33.1349 16.3705 32.7366 16.1315 32.4841C16.1274 32.4798 16.1239 32.4751 16.1196 32.4709L13.9394 30.2898C13.721 30.0713 13.3782 30.0387 13.1222 30.2118C12.1807 30.8494 11.0807 31.1863 9.94113 31.1863C6.8027 31.1863 4.2496 28.6335 4.2496 25.4956C4.2496 24.3564 4.58664 23.2561 5.2243 22.3136C5.39737 22.0578 5.36463 21.7151 5.14626 21.4967L1.10034 17.4507C0.759344 17.0847 -0.00171584 17.2827 2.90628e-06 17.9069V40.9737C2.90628e-06 42.809 1.49308 44.3021 3.32835 44.3021H4.9328C4.9456 44.3019 4.99012 44.3015 5.05861 44.2896Z" fill="#7161BA"/>
<path d="M43.9981 15.7805C43.9981 15.4246 43.7096 15.136 43.3535 15.136C42.9975 15.136 42.709 15.4246 42.709 15.7805V24.7306L38.8038 20.8254C38.5185 20.5401 38.5185 20.0758 38.8036 19.7905C39.5911 19.0026 39.5909 17.7207 38.8032 16.9329L37.4185 15.548C37.2804 15.4098 37.2042 15.2261 37.2042 15.0306C37.2042 14.8351 37.2804 14.6513 37.4185 14.5131L42.709 9.22198V12.7597C42.709 13.1156 42.9975 13.4042 43.3535 13.4042C43.7096 13.4042 43.9981 13.1156 43.9981 12.7597V3.63108C43.9981 1.79581 42.505 0.302734 40.6697 0.302734H35.9071C35.551 0.302734 35.2626 0.591311 35.2626 0.947263V6.56927C35.2626 7.94495 34.7269 9.23831 33.754 10.211L28.3934 15.5716C28.3933 15.5717 28.3932 15.5717 28.3932 15.5718C28.3932 15.5719 28.3932 15.572 28.3931 15.572L22.0219 21.9432C21.8376 22.1274 21.7825 22.4044 21.882 22.6451L23.9512 27.6504C24.1173 28.0533 24.0255 28.5126 23.7173 28.8207L14.8641 37.674C14.6124 37.9257 14.6124 38.3338 14.8641 38.5854L20.3924 44.1138C20.4994 44.2119 20.6478 44.3053 20.8482 44.3026H40.6695C42.5048 44.3026 43.9979 42.8095 43.9979 40.9742V15.7805H43.9981ZM42.709 32.6215L29.6063 19.5186C29.3545 19.2669 28.9465 19.2669 28.6948 19.5186C28.4431 19.7703 28.4431 20.1785 28.6948 20.4301L37.999 29.7345L34.5773 33.1563C33.9532 31.8661 33.1843 30.5323 32.2359 29.1725C30.2909 26.3835 26.8428 24.1043 23.6163 22.1716L28.849 16.9391L42.7089 30.7989V32.6215H42.709ZM39.8218 31.5572L35.6573 35.7217C35.5027 35.2912 35.3336 34.8541 35.1464 34.4103L38.9106 30.6461L39.8218 31.5572ZM34.6656 11.1225C35.8818 9.9063 36.5516 8.28922 36.5516 6.56927V1.59179H40.6697C41.7942 1.59179 42.709 2.50659 42.709 3.63108V7.39891L36.5069 13.6017C36.1253 13.9834 35.9151 14.4909 35.9151 15.0306C35.9151 15.5705 36.1253 16.078 36.507 16.4595L37.8916 17.8442C38.1769 18.1295 38.177 18.5938 37.8918 18.8791C37.1043 19.667 37.1044 20.949 37.8921 21.7368L42.709 26.5536V28.9748L29.7606 16.0275L34.6656 11.1225ZM24.6289 29.7323C25.3065 29.0549 25.5082 28.0449 25.1428 27.1585L23.7333 23.7489C26.6045 25.5062 29.525 27.5384 31.1789 29.9098C32.1867 31.3548 32.9821 32.7673 33.6095 34.1242L30.6505 37.0832L28.4165 34.849C27.929 34.3616 27.2807 34.0931 26.5909 34.0931H24.708C24.3631 34.0931 24.0385 33.9585 23.7939 33.7138L22.2206 32.1406L24.6289 29.7323ZM21.1153 43.0135L16.2315 38.1297L21.3089 33.0523L22.8822 34.6255C23.3703 35.1136 24.0186 35.3824 24.7077 35.3824H26.5906C26.9361 35.3824 27.2607 35.5167 27.5047 35.7608L29.7388 37.9949L24.72 43.0136H21.1153V43.0135ZM26.5431 43.0135L34.1578 35.3988C34.3378 35.8518 34.4998 36.2977 34.6443 36.7348L28.3656 43.0135H26.5431ZM35.0609 38.1412C35.5434 39.9785 35.7352 41.6306 35.7762 43.0135H30.1886L35.0609 38.1412ZM40.6697 43.0135H37.0658C37.0197 41.3618 36.7713 39.3453 36.1067 37.0954L40.7333 32.4687L42.709 34.4444V40.9741C42.709 42.0987 41.7942 43.0135 40.6697 43.0135Z" fill="#7161BA"/>
<path d="M9.94058 21.0078C7.46566 21.0078 5.45215 23.0213 5.45215 25.4962C5.45215 27.9712 7.46566 29.9846 9.94058 29.9846C12.4155 29.9846 14.4289 27.9712 14.4289 25.4962C14.4289 23.0213 12.4155 21.0078 9.94058 21.0078ZM9.94058 28.6955C8.17645 28.6955 6.74121 27.2604 6.74121 25.4962C6.74121 23.7321 8.17637 22.2969 9.94058 22.2969C11.7046 22.2969 13.1399 23.7321 13.1399 25.4962C13.1399 27.2604 11.7046 28.6955 9.94058 28.6955Z" fill="#7161BA"/>
<path d="M0.00228905 14.3253C0.0232577 14.4598 0.0575466 14.5853 0.188171 14.7176L6.08234 20.6109C6.29641 20.8249 6.63062 20.8613 6.88543 20.698C7.79902 20.1135 8.85536 19.8045 9.94032 19.8045C13.0783 19.8045 15.6312 22.3577 15.6312 25.4962C15.6312 26.5804 15.3221 27.6365 14.7377 28.5502C14.5746 28.8052 14.6107 29.1393 14.8248 29.3533L17.0308 31.5593C17.1567 31.6851 17.3217 31.7481 17.4866 31.7481C17.6516 31.7481 17.8165 31.6852 17.9424 31.5593L21.3885 28.1132C21.5727 27.929 21.6279 27.6521 21.5284 27.4114L19.4598 22.4053C19.2933 22.0026 19.3846 21.5436 19.6931 21.2357L32.2365 8.69149C32.8031 8.12473 33.1153 7.37107 33.1153 6.56944V0.947263C33.1153 0.591311 32.8268 0.302734 32.4707 0.302734H3.32746C1.4921 0.302734 -0.000976562 1.79581 -0.000976562 3.63108V14.2613C-0.000976562 14.2827 0.000140621 14.304 0.00228905 14.3253ZM20.1724 27.5059L17.4864 30.1919L16.0885 28.7941C16.6341 27.7821 16.9201 26.6522 16.9201 25.4961C16.9201 21.6469 13.7889 18.5154 9.94024 18.5154C8.78352 18.5154 7.65336 18.8015 6.64136 19.3469L1.28808 13.9945V10.1994C3.50242 10.7215 5.71299 11.0073 7.87791 11.0506C8.10444 11.5507 8.36372 12.053 8.66286 12.5556C10.5562 15.7341 14.3565 18.2244 18.4986 20.6669C18.0552 21.3164 17.9593 22.1508 18.2681 22.8977L20.1724 27.5059ZM1.28808 7.53615C2.86357 7.93868 4.82018 8.30933 6.97772 8.43334C7.08162 8.86603 7.20829 9.30362 7.35911 9.74448C5.37414 9.6637 3.30374 9.36807 1.28808 8.87445V7.53615ZM8.2251 1.59179H14.3909V3.63624C14.3909 4.57794 14.6077 5.48595 15.0147 6.30545C13.8597 6.60511 12.6441 6.84032 11.3875 7.00437C10.2462 7.15313 9.12349 7.20357 8.04248 7.18407C7.69685 5.08617 7.88393 3.14717 8.2251 1.59179ZM11.5542 8.2826C13.0132 8.09216 14.4218 7.80978 15.7499 7.44351C15.89 7.63507 16.565 8.30013 16.7709 8.50561C14.2581 9.26512 11.5076 9.69541 8.73711 9.76098C8.57297 9.32966 8.43444 8.90101 8.32066 8.47673C9.36849 8.48352 10.4525 8.4262 11.5542 8.2826ZM19.4022 19.703C15.3141 17.3018 11.5482 14.8803 9.77051 11.8959C9.59915 11.6081 9.443 11.3203 9.2982 11.0328C12.2453 10.9154 15.1591 10.4016 17.7979 9.53247L23.6852 15.4197L19.4022 19.703ZM31.3246 7.77987L26.4194 12.6854L21.6517 7.91771C23.7468 6.82949 25.5873 5.48535 27.1317 3.9121C27.8449 3.1818 28.4907 2.40244 29.0563 1.59179H31.8259V6.56927C31.8259 7.02663 31.6479 7.45657 31.3246 7.77987ZM27.4539 1.59179C27.0699 2.08155 26.6541 2.55609 26.2105 3.01027C24.6742 4.57527 22.8197 5.90231 20.6933 6.95951L19.7233 5.98963C21.845 4.9937 23.676 3.73034 25.175 2.22498C25.3811 2.01761 25.5812 1.80552 25.7721 1.59188H27.4539V1.59179ZM18.7591 5.01295C18.435 4.62709 18.2581 4.14507 18.2581 3.63624V1.59179H23.9788C22.5409 2.96412 20.7883 4.11276 18.7591 5.01295ZM16.969 1.59179V3.63624C16.9543 4.56453 17.4177 5.58555 18.1553 6.24452L25.5078 13.597L24.5966 14.5082L17.063 6.97464C16.1711 6.08278 15.6799 4.89719 15.6799 3.63624V1.59179H16.969ZM3.32746 1.59179H6.90794C6.5892 3.16324 6.42669 5.06769 6.72704 7.12563C4.64719 6.98005 2.77222 6.60021 1.28808 6.20378V3.63108C1.28808 2.50659 2.20297 1.59179 3.32746 1.59179Z" fill="#7161BA"/>
<path d="M10.9909 24.9098H10.5851V24.5039C10.5851 24.148 10.2966 23.8594 9.94055 23.8594C9.58451 23.8594 9.29602 24.148 9.29602 24.5039V24.9098H8.89014C8.5341 24.9098 8.24561 25.1984 8.24561 25.5543C8.24561 25.9103 8.5341 26.1989 8.89014 26.1989H9.29602V26.6046C9.29602 26.9606 9.58451 27.2492 9.94055 27.2492C10.2966 27.2492 10.5851 26.9606 10.5851 26.6046V26.1989H10.9909C11.3469 26.1989 11.6354 25.9103 11.6354 25.5543C11.6354 25.1984 11.3468 24.9098 10.9909 24.9098Z" fill="#7161BA"/>
<path d="M38.5981 4.29199H40.387C40.7431 4.29199 41.0315 4.00341 41.0315 3.64746C41.0315 3.29151 40.7431 3.00293 40.387 3.00293H38.5981C38.2421 3.00293 37.9536 3.29151 37.9536 3.64746C37.9536 4.00341 38.2421 4.29199 38.5981 4.29199Z" fill="#7161BA"/>
</svg>
