<svg width="20" height="20" viewBox="0 0 20 20" fill="none" xmlns="http://www.w3.org/2000/svg">
<path d="M8.58958 6.0168C9.12464 4.68289 9.39217 4.01594 9.82682 3.9235C9.9411 3.8992 10.0592 3.8992 10.1735 3.9235C10.6082 4.01594 10.8757 4.68289 11.4108 6.0168C11.715 6.77536 11.8672 7.15465 12.1518 7.41262C12.2317 7.48498 12.3184 7.54942 12.4107 7.60505C12.7397 7.80336 13.1504 7.84014 13.9719 7.91372C15.3626 8.03826 16.0579 8.10053 16.2702 8.49698C16.3142 8.57909 16.3441 8.66799 16.3587 8.75999C16.4291 9.20418 15.9179 9.66923 14.8956 10.5993L14.6117 10.8576C14.1337 11.2924 13.8948 11.5099 13.7565 11.7812C13.6736 11.944 13.618 12.1193 13.592 12.3001C13.5485 12.6015 13.6185 12.9169 13.7585 13.5477L13.8085 13.7731C14.0595 14.9044 14.185 15.47 14.0283 15.748C13.8876 15.9978 13.6284 16.1577 13.3421 16.1713C13.0233 16.1866 12.5741 15.8206 11.6758 15.0886C11.084 14.6063 10.7881 14.3652 10.4595 14.271C10.1593 14.1849 9.84099 14.1849 9.54078 14.271C9.21227 14.3652 8.91635 14.6063 8.32451 15.0886C7.4262 15.8206 6.97704 16.1866 6.65827 16.1713C6.37194 16.1577 6.11274 15.9978 5.97201 15.748C5.81535 15.47 5.94085 14.9044 6.19185 13.7731L6.24186 13.5477C6.38182 12.9169 6.4518 12.6015 6.40837 12.3001C6.38232 12.1193 6.32672 11.944 6.2438 11.7812C6.10558 11.5099 5.8666 11.2924 5.38865 10.8576L5.10475 10.5993C4.08243 9.66923 3.57127 9.20418 3.64166 8.75999C3.65624 8.66799 3.68614 8.57909 3.73011 8.49698C3.94245 8.10053 4.63777 8.03826 6.0284 7.91372C6.84989 7.84014 7.26063 7.80336 7.58966 7.60505C7.68195 7.54942 7.76863 7.48498 7.84848 7.41262C8.13316 7.15465 8.2853 6.77536 8.58958 6.0168Z" fill="#F9D646" stroke="#F9D646" stroke-width="2"/>
</svg>
